<?xml version="1.0" standalone="no"?>
<!DOCTYPE svg PUBLIC "-//W3C//DTD SVG 20010904//EN"
 "http://www.w3.org/TR/2001/REC-SVG-20010904/DTD/svg10.dtd">
<svg version="1.0" xmlns="http://www.w3.org/2000/svg"
 width="433.000000pt" height="433.000000pt" viewBox="0 0 433.000000 433.000000"
 preserveAspectRatio="xMidYMid meet">
<metadata>
Created by potrace 1.14, written by Peter Selinger 2001-2017
</metadata>
<g transform="translate(0.000000,433.000000) scale(0.100000,-0.100000)"
fill="#000000" stroke="none">
<path d="M2100 4264 c-30 -30 -58 -54 -61 -54 -3 0 -36 22 -72 50 l-65 49 -38
-47 c-21 -26 -47 -56 -56 -66 -20 -22 -20 -21 -115 33 l-53 30 -46 -73 -47
-73 -79 33 -78 33 -40 -78 -39 -79 -78 23 c-43 12 -81 21 -85 18 -4 -2 -15
-30 -24 -61 -18 -63 -41 -105 -53 -98 -4 3 -30 8 -57 11 -27 3 -59 8 -71 11
-13 2 -23 1 -24 -3 0 -5 -2 -15 -4 -23 -2 -8 -9 -43 -15 -77 l-12 -63 -89 0
-89 0 -1 -45 c-1 -25 -3 -54 -4 -65 -1 -11 -3 -29 -4 -39 -1 -20 -22 -26 -126
-34 l-40 -3 1 -87 c1 -48 -1 -87 -5 -88 -3 0 -13 -2 -21 -5 -8 -2 -42 -10 -75
-17 -54 -12 -60 -16 -59 -38 1 -26 11 -87 20 -124 5 -20 -2 -25 -71 -50 -42
-16 -79 -34 -81 -40 -3 -7 6 -44 19 -83 l24 -72 -21 -13 c-12 -8 -46 -26 -78
-41 l-56 -27 24 -57 c13 -31 29 -65 34 -75 14 -24 9 -30 -63 -79 -34 -22 -63
-42 -65 -43 -2 -2 17 -36 42 -76 l45 -74 -27 -23 c-15 -13 -44 -39 -65 -59
l-38 -35 34 -41 c18 -23 42 -54 51 -69 l18 -28 -56 -62 -56 -63 62 -62 61 -61
-47 -67 c-25 -36 -46 -69 -46 -73 0 -5 24 -26 52 -47 29 -22 58 -45 65 -51 8
-8 1 -30 -28 -88 l-38 -77 29 -17 c15 -9 49 -29 74 -44 l45 -27 -30 -77 c-16
-42 -26 -80 -22 -84 4 -4 38 -20 76 -36 42 -18 67 -34 67 -44 0 -9 -7 -42 -15
-73 -8 -32 -15 -64 -15 -72 0 -8 23 -20 58 -30 105 -29 103 -27 97 -92 -3 -32
-8 -70 -11 -86 -5 -22 -2 -27 15 -28 12 -1 24 -2 29 -3 23 -7 108 -20 115 -18
6 2 12 -107 8 -151 -3 -22 14 -28 86 -32 32 -1 65 -3 74 -4 13 -1 18 -15 23
-59 14 -120 8 -112 88 -106 39 3 75 7 79 9 13 9 26 -19 45 -93 l19 -74 35 6
c19 3 46 8 60 11 81 17 76 18 95 -33 10 -26 24 -61 32 -79 l13 -32 72 25 c89
30 92 30 109 -3 30 -60 63 -113 71 -113 4 0 39 15 78 34 l71 35 50 -70 c48
-66 52 -69 73 -56 11 8 45 29 74 47 l52 32 59 -63 58 -64 44 37 c24 19 55 45
68 57 28 24 34 21 106 -44 28 -24 53 -45 56 -45 4 0 29 24 55 53 27 29 55 56
61 60 8 5 36 -8 70 -31 32 -21 63 -42 70 -45 7 -4 32 21 63 63 l52 69 69 -34
c37 -19 73 -35 78 -35 5 0 27 31 48 70 21 38 43 70 49 70 6 0 43 -11 83 -25
l72 -24 18 42 c10 23 24 59 32 79 14 41 17 42 69 28 19 -5 54 -12 76 -15 l42
-6 19 78 19 78 86 -1 c98 -1 91 -8 103 101 4 33 9 62 10 63 3 4 93 10 151 11
19 1 21 7 22 83 1 45 5 85 9 89 5 4 26 10 48 13 22 3 49 8 60 10 11 3 28 5 37
5 15 1 17 8 11 59 -14 121 -18 113 70 140 86 27 85 26 62 112 -8 30 -15 62
-15 70 0 9 28 27 71 45 39 16 73 33 75 37 4 7 -29 108 -46 140 -11 19 -9 20
77 72 l63 37 -39 76 -40 76 27 21 c15 11 29 23 32 26 3 3 20 16 38 29 17 12
32 27 32 32 0 5 -20 40 -45 76 l-46 67 61 61 60 60 -55 60 c-30 33 -54 63 -55
66 0 4 23 36 51 72 l51 67 -52 47 c-29 27 -59 52 -66 56 -11 6 -9 16 12 48 60
96 67 112 50 121 -8 5 -36 24 -61 43 -25 19 -50 35 -56 35 -6 0 -8 9 -3 23 6
19 50 121 60 138 2 3 -30 23 -71 44 -41 22 -75 43 -75 47 0 5 10 42 22 83 23
78 22 83 -8 89 -11 2 -44 14 -75 25 l-56 21 8 43 c23 128 24 125 -18 136 -21
5 -51 13 -68 16 -65 14 -61 8 -57 100 4 96 11 89 -102 99 -32 3 -60 6 -62 8
-4 5 -12 80 -13 131 l-1 37 -90 0 c-75 0 -90 3 -90 16 0 8 -7 46 -16 84 l-15
69 -42 -5 c-23 -3 -59 -9 -80 -14 -45 -10 -54 1 -82 96 l-18 62 -84 -23 -85
-22 -36 78 -37 78 -57 -24 c-83 -34 -114 -39 -121 -21 -4 9 -22 41 -41 71
l-35 54 -60 -34 c-87 -49 -97 -50 -117 -21 -22 34 -79 96 -87 96 -4 0 -35 -20
-69 -45 -34 -25 -65 -45 -68 -45 -3 0 -30 25 -60 55 -30 30 -59 54 -65 54 -5
0 -35 -25 -65 -55z"/>
</g>
</svg>
